<?xml version="1.0" standalone="no"?>
<!DOCTYPE svg PUBLIC "-//W3C//DTD SVG 20010904//EN"
 "http://www.w3.org/TR/2001/REC-SVG-20010904/DTD/svg10.dtd">
<svg version="1.0" xmlns="http://www.w3.org/2000/svg"
 width="512.000000pt" height="512.000000pt" viewBox="0 0 512.000000 512.000000"
 preserveAspectRatio="xMidYMid meet">

<g transform="translate(0.000000,512.000000) scale(0.100000,-0.100000)"
fill="#000000" stroke="none">
<path d="M2414 5110 c-645 -74 -1174 -531 -1329 -1150 -39 -152 -45 -229 -45
-571 l0 -336 -63 -7 c-34 -4 -83 -14 -109 -22 -69 -22 -158 -92 -202 -157 -75
-115 -70 -22 -74 -1287 -2 -759 1 -1161 8 -1215 6 -46 21 -102 36 -132 54
-111 163 -197 282 -222 75 -16 3209 -16 3284 0 119 25 228 111 282 222 15 30
30 86 36 132 7 54 10 456 8 1215 -4 1261 1 1170 -72 1284 -19 30 -58 73 -85
95 -50 39 -143 81 -180 81 -10 0 -33 3 -50 6 l-31 7 0 287 c0 158 -5 334 -10
391 -29 284 -131 546 -300 771 -236 314 -579 525 -965 594 -99 18 -326 26
-421 14z m346 -686 c105 -23 197 -63 289 -124 187 -125 310 -303 367 -530 12
-51 17 -136 21 -392 l5 -328 -867 0 -867 0 4 343 c4 315 6 348 26 414 60 199
166 352 327 471 198 146 451 199 695 146z m-85 -2329 c123 -36 226 -135 261
-251 16 -51 20 -161 8 -210 -14 -60 -58 -129 -120 -189 l-64 -63 0 -294 0
-294 -29 -45 c-73 -116 -248 -110 -319 11 l-27 45 -5 297 -5 296 -46 41 c-83
73 -139 188 -139 286 0 67 28 155 69 214 93 138 261 201 416 156z"/>
</g>
</svg>
