<?xml version="1.0" standalone="no"?>
<!DOCTYPE svg PUBLIC "-//W3C//DTD SVG 20010904//EN"
 "http://www.w3.org/TR/2001/REC-SVG-20010904/DTD/svg10.dtd">
<svg version="1.0" xmlns="http://www.w3.org/2000/svg"
 width="250.000000pt" height="250.000000pt" viewBox="0 0 250.000000 250.000000"
 preserveAspectRatio="xMidYMid meet">

<g transform="translate(0.000000,250.000000) scale(0.100000,-0.100000)"
fill="#ffffff" stroke="none">
<path d="M50 1873 c0 -274 4 -502 8 -508 4 -5 32 -31 63 -57 55 -46 57 -47
134 -50 l79 -3 63 -88 c74 -102 78 -79 -42 -254 l-76 -113 -116 0 -116 0 6
-311 c5 -274 8 -314 23 -330 17 -18 55 -19 1191 -19 l1173 0 0 250 0 250 -70
35 -70 35 2 273 3 272 68 3 67 3 0 478 0 479 -57 49 c-32 27 -74 61 -94 76
l-36 27 -1101 0 -1102 0 0 -497z m2200 -18 l0 -485 -60 0 -60 0 0 -300 0 -300
60 0 60 0 0 -285 0 -285 -1067 -2 c-588 -2 -1076 -1 -1085 1 -17 3 -18 25 -18
287 l0 284 105 0 105 0 100 150 101 151 -98 149 -98 149 -105 3 -105 3 -3 483
-2 482 1085 0 1085 0 0 -485z"/>
<path d="M1202 2240 c-10 -17 -10 -20 6 -20 11 0 27 9 37 20 18 19 17 20 -6
20 -13 0 -30 -9 -37 -20z"/>
<path d="M247 2182 c-26 -27 -27 -33 -27 -134 l0 -106 31 -26 c44 -38 121 -37
161 1 40 38 37 63 -7 63 -25 0 -35 -4 -35 -16 0 -12 -9 -14 -37 -12 l-38 3 0
95 0 95 38 3 c28 2 37 0 37 -12 0 -12 10 -16 35 -16 30 0 35 3 35 23 0 38 -50
67 -113 67 -45 0 -57 -4 -80 -28z"/>
<path d="M527 2182 c-26 -27 -27 -33 -27 -134 l0 -106 31 -26 c44 -38 121 -37
161 1 27 26 28 29 28 138 l0 111 -30 22 c-21 16 -43 22 -83 22 -45 0 -57 -4
-80 -28z m123 -132 l0 -100 -40 0 -40 0 0 100 0 100 40 0 40 0 0 -100z"/>
<path d="M780 2180 c0 -23 4 -30 20 -30 19 0 20 -7 20 -96 0 -87 -2 -96 -20
-101 -14 -4 -20 -14 -20 -34 l0 -29 130 0 130 0 0 45 c0 44 0 45 -34 45 -21 0
-36 -6 -40 -15 -3 -9 -19 -15 -41 -15 l-35 0 0 100 c0 93 1 100 20 100 16 0
20 7 20 30 l0 30 -75 0 -75 0 0 -30z"/>
<path d="M1100 2178 c0 -18 5 -28 15 -28 12 0 15 -18 15 -100 0 -82 -3 -100
-15 -100 -10 0 -15 -10 -15 -30 l0 -30 125 0 125 0 1 28 c0 15 2 35 4 45 3 14
-4 17 -36 17 -29 0 -39 -4 -39 -16 0 -24 -72 -15 -76 10 -5 33 7 46 42 46 31
0 34 3 34 29 0 27 -3 30 -37 33 -35 3 -38 6 -38 33 0 27 3 30 38 33 28 2 37 0
37 -12 0 -11 10 -16 34 -16 33 0 34 1 38 45 l3 44 -127 -1 -128 -2 0 -28z"/>
<path d="M1437 2182 c-26 -27 -27 -33 -27 -135 l0 -106 33 -25 c46 -36 120
-36 160 -1 25 22 27 30 27 95 l0 70 -50 0 c-49 0 -50 -1 -50 -30 0 -20 5 -30
15 -30 11 0 15 -11 15 -36 0 -35 -1 -35 -37 -32 l-38 3 -3 98 -3 97 41 0 c29
0 40 -4 40 -15 0 -10 11 -15 35 -15 30 0 35 3 35 24 0 38 -47 66 -112 66 -46
0 -58 -4 -81 -28z"/>
<path d="M1690 2180 c0 -23 4 -30 20 -30 19 0 20 -7 20 -96 0 -87 -2 -96 -20
-101 -14 -4 -20 -14 -20 -34 l0 -29 70 0 70 0 0 30 c0 20 -5 30 -15 30 -12 0
-15 18 -15 100 0 82 3 100 15 100 10 0 15 10 15 30 l0 30 -70 0 -70 0 0 -30z"/>
<path d="M1917 2182 c-26 -27 -27 -33 -27 -133 0 -102 1 -106 28 -132 23 -22
37 -27 82 -27 45 0 59 5 82 27 27 26 28 30 28 132 0 100 -1 106 -27 133 -23
24 -34 28 -83 28 -49 0 -60 -4 -83 -28z m123 -132 l0 -100 -40 0 -40 0 0 100
0 100 40 0 40 0 0 -100z"/>
<path d="M227 1803 c-4 -3 -7 -68 -7 -144 l0 -138 73 -3 72 -3 148 -222 148
-222 -147 -220 -147 -221 -74 0 -73 0 0 -145 0 -145 270 0 270 0 0 145 0 145
-50 0 c-27 0 -50 2 -50 5 0 13 142 216 148 211 3 -4 36 -52 73 -109 l67 -102
-54 -3 -54 -3 0 -144 0 -145 270 0 270 0 0 145 0 145 -72 1 -73 0 -142 218
c-79 119 -143 220 -143 223 0 6 272 421 286 436 1 2 34 4 73 5 l71 0 0 149 0
148 -267 -2 -268 -3 -3 -142 c-3 -159 -8 -148 74 -155 l31 -3 -72 -108 -72
-107 -72 108 c-39 59 -71 111 -71 115 0 4 23 7 50 7 l51 0 -3 143 -3 142 -261
3 c-143 1 -263 -1 -267 -5z"/>
<path d="M1554 1797 c-2 -7 -3 -73 -2 -146 l3 -133 70 -2 70 -1 3 -442 2 -443
-75 0 -75 0 0 -145 0 -145 280 0 280 0 0 145 0 145 -60 0 -60 0 0 445 0 445
60 0 60 0 0 145 0 145 -275 0 c-217 0 -277 -3 -281 -13z"/>
</g>
</svg>
