<?xml version="1.0" standalone="no"?>
<!DOCTYPE svg PUBLIC "-//W3C//DTD SVG 20010904//EN"
 "http://www.w3.org/TR/2001/REC-SVG-20010904/DTD/svg10.dtd">
<svg version="1.0" xmlns="http://www.w3.org/2000/svg"
 width="512.000000pt" height="512.000000pt" viewBox="0 0 512.000000 512.000000"
 preserveAspectRatio="xMidYMid meet">

<g transform="translate(0.000000,512.000000) scale(0.100000,-0.100000)"
fill="#ffffff" stroke="none">
<path d="M2630 4900 c-955 -78 -1750 -707 -2045 -1620 -20 -63 -38 -116 -39
-118 -2 -1 -40 54 -86 123 -46 69 -98 139 -116 154 -99 87 -259 58 -321 -58
-27 -52 -31 -146 -9 -190 40 -76 507 -770 534 -793 43 -36 95 -51 159 -46 52
5 72 16 426 254 204 137 384 260 399 273 71 59 91 171 46 258 -43 85 -160 134
-251 104 -19 -7 -110 -63 -202 -126 -93 -63 -170 -113 -172 -112 -5 6 37 146
68 224 134 340 350 622 640 838 753 561 1809 484 2474 -180 359 -359 555 -834
555 -1345 0 -320 -66 -587 -216 -880 -85 -164 -175 -289 -308 -427 -180 -187
-322 -291 -541 -398 -651 -317 -1395 -243 -1978 197 -112 84 -278 252 -370
374 -86 116 -129 144 -213 144 -158 -1 -261 -164 -191 -301 60 -119 289 -374
462 -514 258 -210 576 -370 894 -450 375 -94 762 -94 1136 0 558 141 1044 483
1364 962 184 275 314 613 368 953 25 161 25 538 0 700 -114 731 -540 1352
-1174 1709 -385 217 -867 325 -1293 291z"/>
<path d="M2682 3829 c-52 -26 -99 -81 -113 -131 -6 -24 -9 -251 -7 -620 3
-523 5 -586 20 -613 28 -50 686 -714 732 -738 96 -50 227 -15 280 76 35 60 41
105 22 170 -15 51 -33 72 -320 364 l-305 310 -3 525 -3 525 -30 48 c-58 93
-179 130 -273 84z"/>
</g>
</svg>
