<?xml version="1.0" standalone="no"?>
<!DOCTYPE svg PUBLIC "-//W3C//DTD SVG 20010904//EN"
 "http://www.w3.org/TR/2001/REC-SVG-20010904/DTD/svg10.dtd">
<svg version="1.0" xmlns="http://www.w3.org/2000/svg"
 width="512.000000pt" height="512.000000pt" viewBox="0 0 512.000000 512.000000"
 preserveAspectRatio="xMidYMid meet">

<g transform="translate(0.000000,512.000000) scale(0.100000,-0.100000)"
fill="#000000" stroke="none">
<path d="M735 5106 c-41 -18 -83 -69 -90 -109 -3 -18 -5 -190 -3 -384 3 -337
4 -353 24 -379 39 -53 71 -69 134 -69 63 0 95 16 134 69 20 27 21 39 21 406 0
367 -1 379 -21 406 -11 15 -32 37 -46 47 -33 25 -113 32 -153 13z"/>
<path d="M3295 5106 c-41 -18 -83 -69 -90 -109 -3 -18 -5 -190 -3 -384 3 -337
4 -353 24 -379 39 -53 71 -69 134 -69 63 0 95 16 134 69 20 27 21 39 21 406 0
367 -1 379 -21 406 -11 15 -32 37 -46 47 -33 25 -113 32 -153 13z"/>
<path d="M259 4466 c-90 -24 -176 -93 -219 -176 -40 -76 -40 -69 -40 -1570 0
-1524 -1 -1492 44 -1579 28 -52 102 -120 164 -149 l57 -27 987 -3 988 -2 0
160 0 160 -948 0 c-724 0 -951 3 -960 12 -9 9 -12 272 -12 1120 l0 1108 1760
0 1760 0 0 -320 0 -320 160 0 161 0 -3 668 -3 667 -26 55 c-39 81 -90 135
-165 171 -59 29 -77 33 -174 37 l-108 4 -4 -118 c-3 -102 -7 -127 -29 -175
-55 -117 -159 -184 -289 -184 -130 0 -234 67 -289 184 -22 48 -26 73 -29 174
l-4 117 -958 0 -958 0 -4 -117 c-3 -101 -7 -126 -29 -174 -55 -117 -159 -184
-289 -184 -130 0 -234 67 -289 184 -22 48 -26 73 -29 174 l-4 117 -87 -1 c-47
0 -107 -6 -132 -13z"/>
<path d="M640 2880 l0 -320 320 0 320 0 0 320 0 320 -320 0 -320 0 0 -320z"/>
<path d="M1600 2880 l0 -320 320 0 320 0 0 320 0 320 -320 0 -320 0 0 -320z"/>
<path d="M2560 2880 l0 -320 320 0 320 0 0 320 0 320 -320 0 -320 0 0 -320z"/>
<path d="M3676 2549 c-483 -67 -895 -404 -1046 -857 -50 -152 -64 -242 -64
-412 0 -171 14 -260 65 -415 121 -362 433 -673 797 -795 152 -50 242 -64 412
-64 274 0 482 62 710 212 277 183 475 480 547 822 24 117 24 363 0 480 -57
271 -178 492 -371 678 -182 175 -391 286 -641 337 -96 20 -314 28 -409 14z
m347 -330 c120 -24 244 -74 342 -137 90 -59 218 -187 276 -277 97 -150 159
-355 159 -525 0 -170 -62 -375 -159 -525 -58 -90 -186 -218 -276 -277 -148
-96 -355 -158 -525 -158 -170 0 -375 62 -525 159 -90 58 -218 186 -276 276
-97 150 -159 355 -159 525 0 170 62 375 159 525 25 39 81 106 125 151 230 229
548 327 859 263z"/>
<path d="M3615 1906 c-41 -18 -83 -69 -90 -109 -3 -18 -5 -190 -3 -384 3 -337
4 -353 24 -379 11 -15 33 -37 48 -48 27 -20 39 -21 406 -21 367 0 379 1 406
21 53 39 69 71 69 134 0 63 -16 95 -69 134 -26 20 -43 21 -296 24 l-269 3 -3
269 c-3 253 -4 270 -24 296 -11 15 -32 37 -46 47 -33 25 -113 32 -153 13z"/>
<path d="M640 1920 l0 -320 320 0 320 0 0 320 0 320 -320 0 -320 0 0 -320z"/>
<path d="M1600 1920 l0 -320 320 0 320 0 0 320 0 320 -320 0 -320 0 0 -320z"/>
</g>
</svg>
