<?xml version="1.0" standalone="no"?>
<!DOCTYPE svg PUBLIC "-//W3C//DTD SVG 20010904//EN"
 "http://www.w3.org/TR/2001/REC-SVG-20010904/DTD/svg10.dtd">
<svg version="1.0" xmlns="http://www.w3.org/2000/svg"
 width="512.000000pt" height="512.000000pt" viewBox="0 0 512.000000 512.000000"
 preserveAspectRatio="xMidYMid meet">

<g transform="translate(0.000000,512.000000) scale(0.100000,-0.100000)"
fill="#000000" stroke="none">
<path d="M1503 4740 c-18 -10 -39 -33 -48 -49 -29 -57 -20 -95 73 -296 l88
-190 717 -3 c574 -2 717 -5 717 -15 0 -7 -26 -71 -59 -142 l-58 -130 -132 -3
c-72 -1 -131 -4 -131 -6 0 -2 11 -33 24 -69 87 -229 170 -639 191 -937 l6 -85
-107 -74 c-72 -49 -109 -69 -114 -61 -4 6 -10 82 -13 168 -13 312 -86 668
-198 957 l-40 105 -73 0 -73 0 -65 -87 c-205 -275 -358 -552 -459 -830 -19
-51 -38 -93 -42 -93 -12 0 -187 120 -187 128 0 18 85 225 139 337 60 126 181
327 275 458 31 42 56 80 56 82 0 3 -54 5 -120 5 -91 0 -118 -3 -115 -12 3 -7
-19 -29 -47 -48 -184 -124 -450 -373 -588 -550 -242 -313 -429 -689 -536
-1079 -94 -342 -141 -698 -147 -1091 -2 -163 0 -178 20 -215 25 -47 64 -85
113 -111 33 -18 72 -19 628 -22 l593 -3 -36 52 c-99 144 -84 344 35 473 44 47
138 101 195 112 l33 6 -20 46 c-11 26 -23 79 -25 118 -12 171 83 321 244 386
57 23 64 23 525 26 301 2 488 -1 525 -8 178 -32 307 -174 320 -352 4 -61 1
-85 -19 -145 l-24 -73 558 0 558 0 -5 38 c-2 20 -9 84 -15 142 -34 320 -115
660 -227 945 -202 516 -513 929 -937 1247 -66 50 -123 92 -125 94 -2 1 68 157
154 346 86 189 159 358 162 376 8 44 -22 107 -62 132 -32 20 -53 20 -1051 20
-993 0 -1020 -1 -1051 -20z"/>
<path d="M2315 1773 c-39 -10 -84 -53 -96 -92 -24 -80 18 -158 97 -180 51 -14
874 -15 925 -1 47 13 86 53 101 102 10 33 9 46 -8 86 -15 38 -28 52 -64 70
-44 22 -46 22 -490 21 -245 -1 -454 -4 -465 -6z"/>
<path d="M2009 1189 c-95 -55 -97 -174 -5 -243 27 -21 38 -21 494 -21 451 0
468 1 502 20 67 40 90 132 47 196 -46 70 -40 69 -547 69 -443 0 -456 -1 -491
-21z"/>
<path d="M3745 1196 c-17 -7 -43 -28 -58 -45 -50 -59 -30 -162 40 -208 25 -17
65 -18 523 -21 272 -2 520 0 550 3 47 6 61 13 93 46 33 35 37 46 37 90 0 65
-23 104 -75 129 -40 19 -63 20 -561 20 -409 -1 -525 -4 -549 -14z"/>
<path d="M2210 622 c-47 -25 -83 -94 -75 -142 8 -46 29 -77 68 -100 31 -19 54
-20 502 -20 442 0 472 1 501 19 62 38 82 131 41 192 -46 70 -40 69 -547 69
-421 0 -458 -1 -490 -18z"/>
<path d="M3590 622 c-47 -23 -83 -93 -75 -142 8 -46 29 -77 68 -100 31 -19 54
-20 572 -20 518 0 541 1 572 20 92 56 81 194 -19 246 -22 11 -121 14 -555 14
-483 0 -531 -2 -563 -18z"/>
</g>
</svg>
