<?xml version="1.0" standalone="no"?>
<!DOCTYPE svg PUBLIC "-//W3C//DTD SVG 20010904//EN"
 "http://www.w3.org/TR/2001/REC-SVG-20010904/DTD/svg10.dtd">
<svg version="1.0" xmlns="http://www.w3.org/2000/svg"
 width="250.000000pt" height="250.000000pt" viewBox="0 0 250.000000 250.000000"
 preserveAspectRatio="xMidYMid meet">

<g transform="translate(0.000000,250.000000) scale(0.100000,-0.100000)"
fill="#ffffff" stroke="none">
<path d="M340 1731 l0 -248 47 -37 c41 -32 53 -36 104 -36 l59 0 44 -66 44
-66 -65 -99 -66 -99 -84 0 -83 0 0 -243 0 -243 38 -37 38 -37 872 0 872 0 0
223 0 223 -45 22 -45 22 0 200 0 200 45 0 45 0 0 223 0 223 -63 62 -63 62
-847 0 -847 0 0 -249z m1670 4 l0 -215 -39 0 c-21 0 -44 -6 -50 -14 -8 -9 -11
-81 -9 -237 l3 -224 48 -3 47 -3 0 -205 0 -204 -820 0 -820 0 0 205 0 204 78
3 77 3 79 117 78 116 -78 119 -79 118 -77 3 -78 3 0 214 0 215 820 0 820 0 0
-215z"/>
<path d="M470 1720 l0 -110 55 0 55 0 111 -166 111 -166 -113 -169 -112 -169
-53 0 -54 0 0 -110 0 -110 205 0 205 0 0 110 0 110 -35 0 c-19 0 -35 5 -35 10
0 6 23 45 51 86 l51 76 54 -81 c30 -44 54 -83 54 -86 0 -3 -18 -5 -40 -5 l-40
0 0 -110 0 -110 208 2 207 3 3 107 3 107 -58 3 -58 3 -112 166 -112 166 112
167 111 166 58 0 58 0 0 110 0 110 -210 0 -210 0 0 -109 0 -110 40 -3 40 -3
-51 -77 c-29 -43 -54 -78 -58 -78 -3 0 -30 36 -59 80 l-52 80 40 0 40 0 0 110
0 110 -205 0 -205 0 0 -110z"/>
<path d="M1482 1723 l3 -108 58 -3 57 -3 -2 -332 -3 -332 -58 -3 -58 -3 3
-107 3 -107 213 -3 212 -2 0 110 0 110 -45 0 -45 0 0 335 0 335 45 0 45 0 0
110 0 110 -215 0 -216 0 3 -107z"/>
</g>
</svg>
